<?xml version="1.0" encoding="UTF-8"?>
<svg xmlns="http://www.w3.org/2000/svg" xmlns:xlink="http://www.w3.org/1999/xlink" width="50pt" height="50pt" viewBox="0 0 50 50" version="1.1">
<g id="surface1">
<path style=" stroke:none;fill-rule:nonzero;fill:rgb(1.176471%,66.27451%,95.686275%);fill-opacity:1;" d="M 21.03125 0.0195312 C 21.03125 0.03125 21.226562 0.144531 21.460938 0.277344 C 22.519531 0.886719 23.242188 1.433594 23.621094 1.933594 C 23.960938 2.371094 24.058594 2.59375 24.140625 3.121094 C 24.183594 3.371094 24.21875 3.578125 24.222656 3.585938 C 24.226562 3.589844 24.503906 3.503906 24.839844 3.398438 C 25.886719 3.058594 26.996094 2.851562 27.792969 2.851562 C 28.382812 2.851562 29.058594 3.007812 29.472656 3.246094 C 29.578125 3.308594 29.679688 3.359375 29.691406 3.359375 C 29.734375 3.359375 29.523438 3.082031 29.375 2.929688 C 28.65625 2.210938 27.121094 1.933594 25.546875 2.238281 L 25.078125 2.328125 L 25 2.171875 C 24.789062 1.710938 24.191406 1.113281 23.625 0.792969 C 23.066406 0.472656 22.359375 0.21875 21.722656 0.105469 C 21.3125 0.03125 21.03125 0 21.03125 0.0195312 Z M 21.03125 0.0195312 "/>
<path style=" stroke:none;fill-rule:nonzero;fill:rgb(1.176471%,66.27451%,95.686275%);fill-opacity:1;" d="M 14.957031 4.679688 C 17.164062 5.925781 18.542969 7.039062 19.203125 8.109375 C 19.511719 8.601562 19.644531 9.023438 19.75 9.8125 C 19.804688 10.207031 19.851562 10.53125 19.855469 10.535156 C 19.859375 10.539062 20.207031 10.429688 20.625 10.289062 C 23.464844 9.335938 25.925781 9.023438 27.632812 9.398438 C 28.121094 9.503906 28.769531 9.75 29.160156 9.972656 C 29.296875 10.050781 29.417969 10.105469 29.425781 10.097656 C 29.488281 10.050781 29.007812 9.472656 28.683594 9.199219 C 27.695312 8.363281 26.3125 7.957031 24.453125 7.957031 C 23.527344 7.957031 22.851562 8.023438 21.957031 8.207031 C 21.644531 8.269531 21.382812 8.316406 21.375 8.3125 C 21.371094 8.304688 21.261719 8.113281 21.136719 7.886719 C 20.511719 6.769531 19.492188 5.898438 18 5.203125 C 17.015625 4.746094 15.265625 4.296875 14.480469 4.296875 L 14.277344 4.296875 Z M 14.957031 4.679688 "/>
<path style=" stroke:none;fill-rule:nonzero;fill:rgb(1.176471%,66.27451%,95.686275%);fill-opacity:1;" d="M 20.640625 11.734375 C 13.589844 13.878906 9.210938 17.84375 7.945312 23.242188 C 7.710938 24.257812 7.566406 25.773438 7.640625 26.535156 L 7.679688 26.878906 L 7.875 26.730469 C 9.179688 25.761719 9.824219 25.328125 10.726562 24.816406 C 13.65625 23.152344 16.757812 22.191406 20.308594 21.847656 C 21.191406 21.761719 23.832031 21.75 24.707031 21.828125 C 26.019531 21.945312 27.566406 22.191406 28.417969 22.417969 C 28.761719 22.507812 28.839844 22.519531 28.820312 22.472656 C 28.773438 22.371094 21.238281 11.566406 21.214844 11.566406 C 21.203125 11.566406 20.945312 11.640625 20.640625 11.734375 Z M 20.640625 11.734375 "/>
<path style=" stroke:none;fill-rule:nonzero;fill:rgb(1.176471%,66.27451%,95.686275%);fill-opacity:1;" d="M 21.148438 23.191406 C 18.71875 23.355469 17.078125 23.679688 15.132812 24.382812 C 12.386719 25.375 9.683594 27.175781 7.980469 29.15625 C 7.59375 29.609375 7.554688 29.746094 7.558594 30.625 C 7.558594 31.253906 7.578125 31.410156 7.683594 31.835938 C 8 33.121094 8.703125 34.738281 9.597656 36.25 C 9.996094 36.921875 9.941406 36.898438 10.261719 36.496094 C 13.25 32.746094 18.667969 30.464844 25.878906 29.925781 C 28.296875 29.742188 31.242188 29.78125 33.472656 30.019531 C 33.761719 30.050781 34.003906 30.070312 34.019531 30.058594 C 34.046875 30.035156 30.546875 24.648438 30.449219 24.5625 C 30.300781 24.429688 28.320312 23.90625 27.011719 23.652344 C 25.292969 23.320312 23.617188 23.15625 22.066406 23.171875 C 21.660156 23.175781 21.25 23.183594 21.148438 23.191406 Z M 21.148438 23.191406 "/>
<path style=" stroke:none;fill-rule:nonzero;fill:rgb(1.176471%,66.27451%,95.686275%);fill-opacity:1;" d="M 26.933594 31.277344 C 26.308594 31.304688 25.136719 31.417969 24.378906 31.527344 C 19.683594 32.195312 15.378906 34.289062 12.359375 37.382812 C 11.679688 38.074219 10.746094 39.207031 10.746094 39.335938 C 10.746094 39.378906 16.378906 45.640625 16.429688 45.652344 C 16.449219 45.65625 16.683594 45.28125 16.953125 44.8125 C 19.472656 40.46875 22.941406 37.730469 27.273438 36.679688 C 28.742188 36.324219 29.570312 36.234375 31.386719 36.230469 C 32.917969 36.230469 33.472656 36.269531 34.695312 36.46875 C 36.316406 36.734375 38.226562 37.25 39.328125 37.722656 C 39.496094 37.796875 39.644531 37.851562 39.648438 37.84375 C 39.660156 37.835938 38.726562 36.539062 37.585938 34.960938 L 35.507812 32.089844 L 35.320312 32.042969 C 34.460938 31.832031 32.316406 31.5 31.113281 31.390625 C 29.714844 31.265625 28.164062 31.222656 26.933594 31.277344 Z M 26.933594 31.277344 "/>
<path style=" stroke:none;fill-rule:nonzero;fill:rgb(1.176471%,66.27451%,95.686275%);fill-opacity:1;" d="M 31.960938 37.132812 C 31.070312 37.199219 29.972656 37.371094 30 37.4375 C 30.015625 37.460938 30.5 38.535156 31.089844 39.824219 C 31.675781 41.113281 32.164062 42.1875 32.175781 42.210938 C 32.1875 42.234375 32.347656 42.269531 32.527344 42.28125 C 33.207031 42.339844 34.675781 42.503906 35.476562 42.617188 C 38.574219 43.046875 40.714844 43.609375 41.710938 44.25 C 41.882812 44.359375 42.019531 44.445312 42.019531 44.441406 C 42.019531 44.4375 41.398438 43.195312 40.644531 41.679688 L 39.273438 38.925781 L 38.824219 38.660156 C 37.597656 37.941406 36.015625 37.429688 34.304688 37.207031 C 33.875 37.148438 32.371094 37.101562 31.960938 37.132812 Z M 31.960938 37.132812 "/>
<path style=" stroke:none;fill-rule:nonzero;fill:rgb(1.176471%,66.27451%,95.686275%);fill-opacity:1;" d="M 26.636719 43.296875 C 26.636719 43.316406 29.335938 47.625 29.363281 47.644531 C 29.367188 47.652344 29.734375 47.59375 30.175781 47.519531 C 31.980469 47.207031 33.914062 46.933594 35.335938 46.792969 C 35.617188 46.761719 36.222656 46.738281 36.691406 46.738281 C 37.492188 46.738281 37.554688 46.742188 37.785156 46.832031 C 38.101562 46.953125 38.300781 47.144531 38.300781 47.332031 C 38.300781 47.449219 38.257812 47.507812 38.050781 47.683594 L 37.804688 47.898438 L 39.738281 47.871094 C 41.234375 47.847656 41.699219 47.832031 41.769531 47.789062 C 42.054688 47.640625 42.164062 47.230469 41.996094 46.953125 C 41.261719 45.757812 36.265625 44.507812 28.011719 43.457031 C 27.421875 43.382812 26.863281 43.3125 26.785156 43.300781 C 26.703125 43.289062 26.636719 43.285156 26.636719 43.296875 Z M 26.636719 43.296875 "/>
<path style=" stroke:none;fill-rule:nonzero;fill:rgb(1.176471%,66.27451%,95.686275%);fill-opacity:1;" d="M 24.667969 45.242188 C 24.558594 46.128906 24.472656 46.886719 24.476562 46.921875 C 24.476562 46.988281 24.558594 46.992188 25.636719 46.988281 C 26.273438 46.984375 26.988281 46.972656 27.222656 46.957031 L 27.65625 46.933594 L 27.164062 46.425781 C 26.132812 45.363281 25.238281 44.296875 25 43.847656 C 24.9375 43.730469 24.878906 43.632812 24.871094 43.632812 C 24.867188 43.632812 24.773438 44.359375 24.667969 45.242188 Z M 24.667969 45.242188 "/>
<path style=" stroke:none;fill-rule:nonzero;fill:rgb(1.176471%,66.27451%,95.686275%);fill-opacity:1;" d="M 21.566406 47.09375 C 20.898438 47.21875 18.574219 48.097656 17.492188 48.636719 L 17.1875 48.785156 L 16.753906 48.710938 C 16.511719 48.667969 15.972656 48.546875 15.550781 48.441406 C 15.125 48.332031 14.613281 48.226562 14.410156 48.199219 C 13.761719 48.121094 12.917969 48.199219 12.28125 48.402344 C 12.039062 48.480469 12.03125 48.488281 12.03125 48.625 C 12.03125 48.996094 11.875 49.191406 11.578125 49.1875 C 11.367188 49.183594 11.199219 49.117188 10.816406 48.886719 C 10.4375 48.664062 10.21875 48.570312 9.796875 48.46875 C 9.28125 48.34375 8.128906 48.34375 7.460938 48.46875 C 7.042969 48.550781 6.808594 48.5625 4.785156 48.597656 C 2.621094 48.636719 2.558594 48.640625 2.167969 48.734375 C 1.265625 48.957031 0.625 49.238281 0.261719 49.566406 C 0.140625 49.671875 0.046875 49.78125 0.046875 49.800781 C 0.046875 49.820312 0.15625 49.847656 0.285156 49.859375 C 0.417969 49.871094 10.851562 49.898438 23.464844 49.921875 C 36.082031 49.941406 47.148438 49.972656 48.058594 49.984375 C 48.964844 49.996094 49.695312 49.996094 49.679688 49.976562 C 49.644531 49.953125 48.769531 49.886719 42.824219 49.453125 C 41.035156 49.324219 36.421875 48.878906 35.6875 48.761719 C 35.570312 48.746094 35.40625 48.636719 35.039062 48.335938 L 34.546875 47.933594 L 33.472656 48.207031 C 31.449219 48.71875 31.199219 48.800781 30.675781 49.101562 C 30.238281 49.351562 30.125 49.390625 29.804688 49.386719 C 29.578125 49.386719 29.386719 49.351562 29.023438 49.242188 C 27.398438 48.75 26.640625 48.570312 24.894531 48.261719 C 24.242188 48.148438 23.882812 48.066406 23.824219 48.019531 C 23.773438 47.980469 23.65625 47.851562 23.558594 47.734375 C 23.167969 47.253906 22.820312 47.070312 22.230469 47.046875 C 22.019531 47.039062 21.757812 47.054688 21.566406 47.09375 Z M 21.566406 47.09375 "/>
</g>
</svg>
